<svg width="20" height="20" viewBox="0 0 20 20" fill="none" xmlns="http://www.w3.org/2000/svg">
<path d="M8.75 7.29167V5.625C8.75 4.25522 8.75 3.57032 8.37168 3.10934C8.30243 3.02495 8.22505 2.94757 8.14066 2.87832C7.67968 2.5 6.99478 2.5 5.625 2.5C4.25522 2.5 3.57032 2.5 3.10934 2.87832C3.02495 2.94757 2.94757 3.02495 2.87832 3.10934C2.5 3.57032 2.5 4.25522 2.5 5.625L2.5 7.29167C2.5 8.66145 2.5 9.34634 2.87832 9.80732C2.94757 9.89171 3.02495 9.96909 3.10934 10.0384C3.57032 10.4167 4.25522 10.4167 5.625 10.4167C6.99478 10.4167 7.67968 10.4167 8.14066 10.0384C8.22505 9.96909 8.30243 9.89171 8.37168 9.80732C8.75 9.34634 8.75 8.66145 8.75 7.29167Z" stroke="#EFEFEF" stroke-linejoin="round"/>
<path d="M6.45833 12.9167L4.79167 12.9167C4.21018 12.9167 3.91944 12.9167 3.68286 12.9884C3.15019 13.15 2.73335 13.5669 2.57177 14.0995C2.5 14.3361 2.5 14.6269 2.5 15.2083C2.5 15.7898 2.5 16.0806 2.57177 16.3171C2.73335 16.8498 3.15019 17.2667 3.68286 17.4282C3.91944 17.5 4.21018 17.5 4.79167 17.5H6.45833C7.03982 17.5 7.33056 17.5 7.56714 17.4282C8.09981 17.2667 8.51665 16.8498 8.67823 16.3171C8.75 16.0806 8.75 15.7898 8.75 15.2083C8.75 14.6269 8.75 14.3361 8.67823 14.0995C8.51665 13.5669 8.09981 13.15 7.56714 12.9884C7.33056 12.9167 7.03982 12.9167 6.45833 12.9167Z" stroke="#EFEFEF" stroke-linejoin="round"/>
<path d="M17.5 14.375V12.7083C17.5 11.3385 17.5 10.6537 17.1217 10.1927C17.0524 10.1083 16.975 10.0309 16.8907 9.96165C16.4297 9.58333 15.7448 9.58333 14.375 9.58333C13.0052 9.58333 12.3203 9.58333 11.8593 9.96165C11.775 10.0309 11.6976 10.1083 11.6283 10.1927C11.25 10.6537 11.25 11.3385 11.25 12.7083L11.25 14.375C11.25 15.7448 11.25 16.4297 11.6283 16.8907C11.6976 16.975 11.775 17.0524 11.8593 17.1217C12.3203 17.5 13.0052 17.5 14.375 17.5C15.7448 17.5 16.4297 17.5 16.8907 17.1217C16.975 17.0524 17.0524 16.975 17.1217 16.8907C17.5 16.4297 17.5 15.7448 17.5 14.375Z" stroke="#EFEFEF" stroke-linejoin="round"/>
<path d="M15.2083 2.5L13.5417 2.5C12.9602 2.5 12.6694 2.5 12.4329 2.57177C11.9002 2.73335 11.4833 3.15019 11.3218 3.68286C11.25 3.91944 11.25 4.21018 11.25 4.79167C11.25 5.37315 11.25 5.66389 11.3218 5.90047C11.4833 6.43314 11.9002 6.84998 12.4329 7.01157C12.6694 7.08333 12.9602 7.08333 13.5417 7.08333H15.2083C15.7898 7.08333 16.0806 7.08333 16.3171 7.01157C16.8498 6.84998 17.2667 6.43314 17.4282 5.90047C17.5 5.66389 17.5 5.37315 17.5 4.79167C17.5 4.21018 17.5 3.91944 17.4282 3.68286C17.2667 3.15019 16.8498 2.73335 16.3171 2.57177C16.0806 2.5 15.7898 2.5 15.2083 2.5Z" stroke="#EFEFEF" stroke-linejoin="round"/>
</svg>
