<svg width="36" height="38" viewBox="0 0 36 38" fill="none" xmlns="http://www.w3.org/2000/svg">
<g clip-path="url(#clip0_2_33758)">
<path d="M10.8834 24.2667V34.9514C10.8834 36.4769 12.1401 37.7122 13.6944 37.7122C15.2487 37.7122 16.5055 36.4724 16.5055 34.9411V24.2223C16.4998 21.8964 15.7385 20.1215 14.5983 18.8396C15.9467 17.2013 16.4998 15.1498 16.4998 13.4933V8.13103C16.4998 2.17905 11.5474 0 8.24991 0H0V34.9468C0 36.4781 1.25677 37.7179 2.81106 37.7179C4.36534 37.7179 5.62211 36.4826 5.62211 34.9571V21.6858H8.22276C8.34041 21.6926 9.13 21.7473 9.80307 22.1059C10.3121 22.3757 10.8834 22.7913 10.8834 24.2667ZM5.62211 16.0332V5.65825H8.26009C8.39584 5.66736 9.09266 5.72884 9.71596 6.02826C10.2703 6.29922 10.8845 6.71021 10.8845 8.20617V13.0994C10.8721 13.2292 10.8845 13.3601 10.8788 13.4887C10.8709 13.6208 10.8076 14.2959 10.4988 14.8993C10.2193 15.4367 9.79628 16.0321 8.25218 16.0321H5.62438L5.62211 16.0332Z" fill="#E44B3A"/>
<path d="M27.2678 0C21.2283 0 19.0179 4.88181 19.0179 8.13331V29.5857C19.0179 32.8361 21.2283 37.719 27.2678 37.719C33.3073 37.719 35.5177 32.8361 35.5177 29.5857V8.13331C35.5177 4.88295 33.3073 0 27.2678 0ZM29.8956 29.4867V29.4958C29.8865 29.629 29.8209 30.3178 29.5132 30.92C29.2406 31.4574 28.8119 32.0596 27.2678 32.0596C25.7237 32.0596 25.3425 31.5006 25.0676 31.0031C24.7 30.3451 24.6468 29.5743 24.64 29.4605V8.22211C24.649 8.08891 24.7147 7.40013 25.0223 6.79787C25.295 6.26051 25.7237 5.65825 27.2678 5.65825C28.8119 5.65825 29.1931 6.21611 29.468 6.71363C29.8492 7.40241 29.8933 8.16291 29.8967 8.23464V29.4878L29.8956 29.4867Z" fill="#E44B3A"/>
</g>
<defs>
<clipPath id="clip0_2_33758">
<rect width="36" height="38" fill="white"/>
</clipPath>
</defs>
</svg>
